<?xml version="1.0" encoding="utf-8"?>
<!-- Generator: Adobe Illustrator 16.0.0, SVG Export Plug-In . SVG Version: 6.00 Build 0)  -->
<!DOCTYPE svg PUBLIC "-//W3C//DTD SVG 1.1//EN" "http://www.w3.org/Graphics/SVG/1.1/DTD/svg11.dtd">
<svg version="1.1" id="Layer_1" xmlns="http://www.w3.org/2000/svg" xmlns:xlink="http://www.w3.org/1999/xlink" x="0px" y="0px"
	 width="256px" height="256px" viewBox="0 0 256 256" enable-background="new 0 0 256 256" xml:space="preserve">
<linearGradient id="SVGID_1_" gradientUnits="userSpaceOnUse" x1="-2044.5796" y1="-709.6367" x2="-1996.2249" y2="-435.4043" gradientTransform="matrix(-1 0 0 1 -1892.2109 700.5039)">
	<stop  offset="0" style="stop-color:#FAAE42"/>
	<stop  offset="1" style="stop-color:#EF3E31"/>
</linearGradient>
<path fill="url(#SVGID_1_)" d="M56.9,0c1.5,0,139.3,0,141.8,0c6.899,0,13.6,1.1,20.1,3.4c9.4,3.4,17.9,9.4,24.3,17.2
	C249.6,28.4,253.9,38,255.4,48c0.6,3.7,0.699,7.4,0.699,11.1c0,3.4,0,123.2,0,128.6c0,3.2,0,6.5,0,9.7
	c0,4.399-0.199,8.899-1.1,13.199c-2,9.9-6.7,19.2-13.5,26.7c-6.7,7.5-15.5,13.101-25,16.101c-5.8,1.8-11.8,2.6-17.9,2.6
	c-2.699,0-142.1,0-144.2-0.1c-10.2-0.5-20.3-3.801-28.8-9.5C17.3,240.8,10.5,233,6.1,224c-3.8-7.7-5.7-16.3-5.7-24.9
	c0-2,0-140.2,0-142.2C0.2,48.4,2,40,5.7,32.4c4.3-9,11-16.9,19.3-22.5c8.5-5.8,18.5-9.2,28.7-9.7C54.7,0,55.8,0,56.9,0z"/>
<linearGradient id="SVGID_2_" gradientUnits="userSpaceOnUse" x1="286.626" y1="6.8511" x2="251.2144" y2="-193.9785" gradientTransform="matrix(1 0 0 -1 -156 11)">
	<stop  offset="0" style="stop-color:#E39F3A"/>
	<stop  offset="1" style="stop-color:#D33929"/>
</linearGradient>
<path fill="url(#SVGID_2_)" d="M216,209.4c-0.9-1.4-1.9-2.801-3-4.101c-2.5-3-5.4-5.6-8.6-7.8c-4-2.7-8.7-4.4-13.5-4.6
	c-3.4-0.2-6.801,0.399-10,1.6c-3.2,1.1-6.301,2.7-9.301,4.3c-3.5,1.8-7,3.601-10.699,5.101c-4.4,1.8-9,3.199-13.7,4.199
	c-5.9,1.101-11.9,1.5-17.8,1.4c-10.7-0.2-21.4-1.8-31.601-4.8c-9-2.7-17.6-6.4-25.7-11.101c-7.1-4.1-13.7-8.8-19.9-14.1
	c-5.1-4.4-9.8-9.1-14.2-14.1c-3-3.5-5.9-7.2-8.6-11c-1.1-1.5-2.1-3.101-3-4.7l0,0l0,0L0,121.2V56.7C0,25.4,25.3,0,56.6,0h50.5
	l37.4,38l0,0c84.4,57.4,57.1,120.7,57.1,120.7S225.6,185.7,216,209.4z"/>
<path fill="#FFFFFF" d="M144.7,38c84.399,57.4,57.1,120.7,57.1,120.7s24,27.1,14.3,50.8c0,0-9.899-16.6-26.5-16.6
	c-16,0-25.399,16.6-57.6,16.6c-71.7,0-105.6-59.9-105.6-59.9C91,192.1,135.1,162,135.1,162c-29.1-16.9-91-97.7-91-97.7
	c53.9,45.9,77.2,58,77.2,58c-13.9-11.5-52.9-67.7-52.9-67.7c31.2,31.6,93.2,75.7,93.2,75.7C179.2,81.5,144.7,38,144.7,38z"/>
</svg>
